HIERARCHY
ROOT Hips
{
	OFFSET 0.000000 0.000000 0.000000
	CHANNELS 6 Xposition Yposition Zposition Zrotation Yrotation Xrotation 
	JOINT LowerBack
	{
		OFFSET 0.000000 0.000000 0.000000
		CHANNELS 3 Zrotation Yrotation Xrotation
		JOINT Spine
		{
			OFFSET 0.028270 2.035590 -0.193380
			CHANNELS 3 Zrotation Yrotation Xrotation
			JOINT Spine1
			{
				OFFSET 0.056720 2.048850 -0.042750
				CHANNELS 3 Zrotation Yrotation Xrotation
				JOINT Neck
				{
					OFFSET 0.000000 0.000000 0.000000
					CHANNELS 3 Zrotation Yrotation Xrotation
					JOINT Neck1
					{
						OFFSET -0.054170 1.746240 0.172020
						CHANNELS 3 Zrotation Yrotation Xrotation
						JOINT Head
						{
							OFFSET 0.104070 1.761360 -0.123970
							CHANNELS 3 Zrotation Yrotation Xrotation
							End Site
							{
								OFFSET 0.000000 0.000000 0.000000
							}
						}
					}
				}
				JOINT LeftShoulder
				{
					OFFSET 0.000000 0.000000 0.000000
					CHANNELS 3 Zrotation Yrotation Xrotation
					JOINT LeftArm
					{
						OFFSET 3.362410 1.200890 -0.311210
						CHANNELS 3 Zrotation Yrotation Xrotation
						JOINT LeftForeArm
						{
							OFFSET 4.983000 -0.000000 -0.000000
							CHANNELS 3 Zrotation Yrotation Xrotation
							JOINT LeftHand
							{
								OFFSET 3.483560 -0.000000 -0.000000
								CHANNELS 3 Zrotation Yrotation Xrotation
								JOINT LeftFingerBase
								{
									OFFSET 0.000000 0.000000 0.000000
									CHANNELS 3 Zrotation Yrotation Xrotation
									JOINT LeftHandIndex1
									{
										OFFSET 0.715260 -0.000000 -0.000000
										CHANNELS 3 Zrotation Yrotation Xrotation
										End Site
										{
											OFFSET 0.000000 0.000000 0.000000
										}
									}
								}
								JOINT LThumb
								{
									OFFSET 0.000000 0.000000 0.000000
									CHANNELS 3 Zrotation Yrotation Xrotation
									End Site
									{
										OFFSET 0.000000 0.000000 0.000000
									}
								}
							}
						}
					}
				}
				JOINT RightShoulder
				{
					OFFSET 0.000000 0.000000 0.000000
					CHANNELS 3 Zrotation Yrotation Xrotation
					JOINT RightArm
					{
						OFFSET -3.136600 1.374050 -0.404650
						CHANNELS 3 Zrotation Yrotation Xrotation
						JOINT RightForeArm
						{
							OFFSET -5.241900 -0.000000 -0.000000
							CHANNELS 3 Zrotation Yrotation Xrotation
							JOINT RightHand
							{
								OFFSET -3.444170 -0.000000 -0.000000
								CHANNELS 3 Zrotation Yrotation Xrotation
								JOINT RightFingerBase
								{
									OFFSET 0.000000 0.000000 0.000000
									CHANNELS 3 Zrotation Yrotation Xrotation
									JOINT RightHandIndex1
									{
										OFFSET -0.622530 -0.000000 -0.000000
										CHANNELS 3 Zrotation Yrotation Xrotation
										End Site
										{
											OFFSET 0.000000 0.000000 0.000000
										}
									}
								}
								JOINT RThumb
								{
									OFFSET 0.000000 0.000000 0.000000
									CHANNELS 3 Zrotation Yrotation Xrotation
									End Site
									{
										OFFSET 0.000000 0.000000 0.000000
									}
								}
							}
						}
					}
				}
			}
		}
	}
}
}
MOTION
Frames: 18
Frame Time: 0.008333
-1.990274 17.246667 1.700830 -144.621561 -86.467957 160.638991 -7.735081 -0.471049 5.869032 -2.870857 -0.143275 -2.063492 -8.652160 -0.253146 -0.763329 10.975089 1.732231 1.554431 -4.895523 -0.416462 2.089114 0.000000 0.000000 0.000000 -1.819996 -8.008867 2.726363 -54.541999 -8.941342 10.420543 -4.181678 -17.431079 0.003727 2.612043 -2.115242 -0.050564 -0.111635 0.032158 -0.000000 0.000000 0.000000 0.000000 0.000000 0.000000 0.000000 21.793372 0.758302 0.685816 72.030180 14.029388 4.940416 2.365284 21.332343 0.005520 -0.575764 10.537960 -0.056294 0.032274 -0.119673 0.000000 0.000000 0.000000 0.000000 0.000000 0.000000 0.000000 
-1.978834 17.245020 1.710984 -134.519082 -86.305521 150.008495 -7.438501 -0.423920 6.010910 -2.824425 -0.108091 -2.036291 -8.708572 -0.216718 -0.769581 10.856418 1.689174 1.603483 -4.909060 -0.416892 2.100000 0.000000 0.000000 0.000000 -1.983370 -8.053715 2.724889 -54.295246 -9.326494 10.418517 -4.184842 -17.319465 0.003627 2.645466 -2.116602 -0.051162 -0.110712 0.033298 -0.000000 0.000000 0.000000 0.000000 0.000000 0.000000 0.000000 21.682245 0.712930 0.658166 72.056268 13.962145 4.895731 2.362815 21.424609 0.005565 -0.587727 10.541262 -0.057393 0.032613 -0.119172 0.000000 0.000000 0.000000 0.000000 0.000000 0.000000 0.000000 
-1.967182 17.243931 1.721560 -122.482687 -86.104230 137.453293 -7.020623 -0.430627 6.178229 -2.754501 -0.127316 -1.998145 -8.766459 -0.233281 -0.769232 10.731500 1.641812 1.651385 -4.923990 -0.417278 2.109950 0.000000 0.000000 0.000000 -2.152790 -8.110133 2.733027 -54.079597 -9.787060 10.382812 -4.188167 -17.128948 0.003495 2.696741 -2.128233 -0.052461 -0.109734 0.035269 -0.000000 0.000000 0.000000 0.000000 0.000000 0.000000 0.000000 21.567556 0.631537 0.623600 72.069608 13.889820 4.837544 2.361011 21.517549 0.005599 -0.597982 10.548192 -0.058395 0.032864 -0.118341 0.000000 0.000000 0.000000 0.000000 0.000000 0.000000 0.000000 
-1.955192 17.243502 1.732560 -109.791660 -85.865882 124.250265 -6.586764 -0.499110 6.372108 -2.679497 -0.205036 -1.950518 -8.820366 -0.306866 -0.769146 10.602518 1.596459 1.704850 -4.940060 -0.417743 2.120807 0.000000 0.000000 0.000000 -2.320150 -8.215688 2.753902 -53.898640 -10.272294 10.272791 -4.192503 -16.888318 0.003324 2.757720 -2.144402 -0.054058 -0.108752 0.038001 0.000000 0.000000 0.000000 0.000000 0.000000 0.000000 0.000000 21.453265 0.518604 0.585280 72.070383 13.803317 4.759336 2.357895 21.611692 0.005595 -0.605078 10.557991 -0.059197 0.032866 -0.117243 0.000000 0.000000 0.000000 0.000000 0.000000 0.000000 0.000000 
-1.942729 17.243766 1.743983 -98.166513 -85.579713 112.116480 -6.230548 -0.606175 6.583486 -2.617046 -0.316360 -1.895601 -8.867908 -0.412438 -0.763029 10.469608 1.548682 1.751668 -4.957673 -0.418224 2.129237 0.000000 0.000000 0.000000 -2.485172 -8.309450 2.782446 -53.746567 -10.843708 10.129185 -4.200700 -16.569388 0.003136 2.826255 -2.170151 -0.056054 -0.108015 0.041458 0.000000 0.000000 0.000000 0.000000 0.000000 0.000000 0.000000 21.347145 0.384907 0.542551 72.056921 13.718194 4.673699 2.352977 21.703570 0.005554 -0.611089 10.569041 -0.059703 0.032653 -0.115994 0.000000 0.000000 0.000000 0.000000 0.000000 0.000000 0.000000 
-1.929813 17.244840 1.755747 -88.737885 -85.247598 102.181963 -5.977281 -0.718008 6.798378 -2.573103 -0.428629 -1.842707 -8.909961 -0.519061 -0.766893 10.332288 1.510119 1.803737 -4.977570 -0.418943 2.139007 0.000000 0.000000 0.000000 -2.635748 -8.451053 2.815462 -53.631816 -11.380318 9.873410 -4.208139 -16.245051 0.002916 2.891024 -2.194883 -0.058053 -0.107142 0.045227 0.000000 0.000000 0.000000 0.000000 0.000000 0.000000 0.000000 21.252063 0.259509 0.507222 72.026599 13.620776 4.574021 2.347286 21.791314 0.005492 -0.613032 10.579439 -0.060009 0.032305 -0.114896 0.000000 0.000000 0.000000 0.000000 0.000000 0.000000 0.000000 
-1.916282 17.246725 1.767849 -81.696322 -84.882176 94.637494 -5.799949 -0.815533 7.011656 -2.543286 -0.524414 -1.791174 -8.950291 -0.609152 -0.769522 10.190736 1.475382 1.844714 -5.000407 -0.419735 2.145544 0.000000 0.000000 0.000000 -2.778444 -8.555673 2.847905 -53.544286 -11.980831 9.579870 -4.216780 -15.871780 0.002682 2.951923 -2.224904 -0.060151 -0.106338 0.049410 0.000000 0.000000 0.000000 0.000000 0.000000 0.000000 0.000000 21.173668 0.148813 0.475460 71.976110 13.531974 4.478091 2.341912 21.872254 0.005433 -0.612381 10.586477 -0.059914 0.031949 -0.113957 0.000000 0.000000 0.000000 0.000000 0.000000 0.000000 0.000000 
-1.901243 17.249749 1.790514 -61.546468 -83.955998 74.119246 -5.225025 -1.315078 7.338319 -2.423005 -1.034214 -1.695936 -8.972951 -1.105741 -0.751454 10.018978 1.482500 1.931928 -5.020284 -0.419858 2.169672 0.000000 0.000000 0.000000 -3.091477 -8.907858 2.974923 -53.461908 -12.663076 9.235452 -4.232861 -15.432510 0.002274 2.999105 -2.249894 -0.062040 -0.106350 0.057723 0.000000 0.000000 0.000000 0.000000 0.000000 0.000000 0.000000 21.019404 -0.179434 0.404205 71.837580 13.405560 4.393881 2.333367 21.978430 0.005228 -0.610538 10.587430 -0.059628 0.030773 -0.110502 0.000000 0.000000 0.000000 0.000000 0.000000 0.000000 0.000000 
-1.886016 17.253427 1.803110 -60.297701 -83.543653 72.374641 -5.140957 -1.343109 7.537140 -2.412300 -1.059895 -1.655373 -9.016975 -1.127733 -0.764516 9.873172 1.467888 1.958602 -5.050216 -0.420926 2.172299 0.000000 0.000000 0.000000 -3.208723 -8.974048 3.002055 -53.424313 -13.293775 8.846708 -4.237447 -15.044075 0.002006 3.038280 -2.280120 -0.063740 -0.105270 0.062298 0.000000 0.000000 0.000000 0.000000 0.000000 0.000000 0.000000 20.983256 -0.228005 0.391131 71.739127 13.335587 4.316647 2.331140 22.039015 0.005206 -0.600330 10.581683 -0.058632 0.030578 -0.110149 0.000000 0.000000 0.000000 0.000000 0.000000 0.000000 0.000000 
-1.870133 17.257929 1.815868 -59.671188 -83.124520 71.264973 -5.035571 -1.362424 7.732873 -2.398614 -1.077677 -1.618229 -9.065114 -1.142842 -0.786026 9.729473 1.467557 1.985683 -5.083611 -0.422183 2.175007 0.000000 0.000000 0.000000 -3.309681 -9.063124 3.031408 -53.409666 -13.892483 8.414299 -4.237875 -14.687119 0.001718 3.062882 -2.305171 -0.065041 -0.103963 0.067049 0.000000 0.000000 0.000000 0.000000 0.000000 0.000000 0.000000 20.968538 -0.255873 0.386907 71.615889 13.267386 4.252522 2.330553 22.090275 0.005196 -0.582601 10.567305 -0.056835 0.030406 -0.109925 0.000000 0.000000 0.000000 0.000000 0.000000 0.000000 0.000000 
-1.853724 17.263213 1.828718 -59.479404 -82.699430 70.608327 -4.909222 -1.377164 7.924236 -2.382032 -1.091617 -1.582596 -9.117647 -1.154617 -0.808582 9.589895 1.476245 2.005789 -5.120229 -0.423529 2.175666 0.000000 0.000000 0.000000 -3.399202 -9.138005 3.062335 -53.408165 -14.508543 7.997141 -4.236039 -14.345340 0.001429 3.074397 -2.329102 -0.066041 -0.102641 0.072018 0.000000 0.000000 0.000000 0.000000 0.000000 0.000000 0.000000 20.977597 -0.269764 0.387517 71.468537 13.212572 4.213222 2.331571 22.129176 0.005200 -0.558540 10.544282 -0.054538 0.030265 -0.109748 0.000000 0.000000 0.000000 0.000000 0.000000 0.000000 0.000000 
-1.836751 17.269207 1.841587 -59.591678 -82.267270 70.275148 -4.763632 -1.389097 8.109238 -2.362924 -1.103559 -1.550955 -9.173673 -1.165472 -0.840882 9.456163 1.499207 2.029775 -5.159510 -0.425061 2.177452 0.000000 0.000000 0.000000 -3.469472 -9.251865 3.096212 -53.422379 -15.062405 7.572060 -4.229234 -14.070702 0.001137 3.071095 -2.346351 -0.066540 -0.101138 0.076969 0.000000 0.000000 0.000000 0.000000 0.000000 0.000000 0.000000 21.007432 -0.266361 0.397107 71.300024 13.160575 4.191275 2.334253 22.155339 0.005216 -0.525577 10.513267 -0.051241 0.030129 -0.109661 0.000000 0.000000 0.000000 0.000000 0.000000 0.000000 0.000000 
-1.819338 17.275794 1.854421 -59.907370 -81.828178 70.168841 -4.600757 -1.400736 8.285413 -2.341565 -1.115949 -1.522563 -9.232861 -1.177574 -0.878853 9.329417 1.532888 2.054223 -5.200800 -0.426707 2.179423 0.000000 0.000000 0.000000 -3.523185 -9.386126 3.132389 -53.445118 -15.576525 7.181915 -4.218647 -13.859552 0.000859 3.055734 -2.359449 -0.066639 -0.099593 0.081868 0.000000 0.000000 0.000000 0.000000 0.000000 0.000000 0.000000 21.056656 -0.250062 0.413243 71.113691 13.117316 4.190019 2.338644 22.166390 0.005248 -0.483804 10.475706 -0.047243 0.030002 -0.109619 0.000000 0.000000 0.000000 0.000000 0.000000 0.000000 0.000000 
-1.801646 17.282877 1.867163 -60.357550 -81.381497 70.224213 -4.421660 -1.413311 8.450274 -2.318034 -1.130046 -1.498108 -9.294450 -1.192269 -0.923552 9.210271 1.577157 2.081455 -5.243323 -0.428454 2.182318 0.000000 0.000000 0.000000 -3.559990 -9.551049 3.170876 -53.473477 -16.032799 6.840636 -4.204050 -13.728820 0.000600 3.029799 -2.368412 -0.066437 -0.098023 0.086604 0.000000 0.000000 0.000000 0.000000 0.000000 0.000000 0.000000 21.121620 -0.221887 0.436261 70.913355 13.080710 4.204368 2.344890 22.161071 0.005296 -0.432126 10.433396 -0.042245 0.029883 -0.109627 0.000000 0.000000 0.000000 0.000000 0.000000 0.000000 0.000000 
-1.783785 17.290348 1.879684 -60.887693 -80.929001 70.390200 -4.229961 -1.428241 8.600843 -2.292915 -1.147166 -1.477012 -9.358079 -1.210589 -0.970965 9.099562 1.627256 2.107819 -5.286386 -0.430233 2.185141 0.000000 0.000000 0.000000 -3.583391 -9.728746 3.210741 -53.500624 -16.453150 6.584143 -4.186870 -13.672834 0.000370 2.996756 -2.375661 -0.066035 -0.096560 0.091152 0.000000 0.000000 0.000000 0.000000 0.000000 0.000000 0.000000 21.200522 -0.186795 0.463832 70.703346 13.056764 4.236838 2.352964 22.137051 0.005365 -0.371533 10.388568 -0.036447 0.029781 -0.109651 0.000000 0.000000 0.000000 0.000000 0.000000 0.000000 0.000000 
-1.765799 17.298075 1.891967 -61.471704 -80.470872 70.641311 -4.026587 -1.445532 8.735609 -2.266230 -1.167334 -1.459836 -9.423038 -1.232629 -1.022084 8.996950 1.682945 2.134817 -5.329191 -0.432025 2.188403 0.000000 0.000000 0.000000 -3.594608 -9.926494 3.251957 -53.523470 -16.824859 6.418868 -4.167178 -13.701832 0.000172 2.958696 -2.381774 -0.065430 -0.095218 0.095437 0.000000 0.000000 0.000000 0.000000 0.000000 0.000000 0.000000 21.288726 -0.144840 0.496293 70.487723 13.043626 4.280556 2.362976 22.093638 0.005455 -0.301522 10.343403 -0.029849 0.029697 -0.109713 0.000000 0.000000 0.000000 0.000000 0.000000 0.000000 0.000000 
-1.747791 17.305971 1.903962 -62.088880 -80.008415 70.958940 -3.813159 -1.465195 8.853219 -2.238157 -1.190547 -1.446583 -9.488813 -1.258311 -1.075825 8.902003 1.742320 2.161567 -5.371050 -0.433791 2.191908 0.000000 0.000000 0.000000 -3.596873 -10.140580 3.294217 -53.537335 -17.151263 6.354984 -4.145566 -13.816732 0.000008 2.918367 -2.388175 -0.064825 -0.094042 0.099433 0.000000 0.000000 0.000000 0.000000 0.000000 0.000000 0.000000 21.382621 -0.097646 0.533043 70.270202 13.042216 4.331006 2.374977 22.030261 0.005569 -0.221695 10.299199 -0.022450 0.029632 -0.109813 0.000000 0.000000 0.000000 0.000000 0.000000 0.000000 0.000000 
-1.729877 17.313986 1.915589 -62.724347 -79.544612 71.329579 -3.593232 -1.487037 8.952969 -2.209312 -1.216523 -1.436848 -9.555122 -1.287189 -1.130068 8.814536 1.802224 2.185514 -5.411476 -0.435488 2.194948 0.000000 0.000000 0.000000 -3.593999 -10.361112 3.337096 -53.536595 -17.444936 6.401219 -4.122924 -14.011580 -0.000123 2.878716 -2.396554 -0.064219 -0.093090 0.103152 0.000000 0.000000 0.000000 0.000000 0.000000 0.000000 0.000000 21.480199 -0.047768 0.573061 70.053528 13.056078 4.388563 2.388836 21.946162 0.005705 -0.133442 10.257358 -0.014351 0.029595 -0.109950 0.000000 0.000000 0.000000 0.000000 0.000000 0.000000 0.000000 
